<?xml version="1.0" encoding="utf-8"?>
<svg xmlns="http://www.w3.org/2000/svg" style="margin: auto; background: none; display: block; shape-rendering: auto;" width="218" height="53" preserveAspectRatio="xMidYMid">
<style type="text/css">
  text {
    text-anchor: middle; font-size: 53px; opacity: 0;
  }
</style>
<g style="transform-origin:109px 26.5px;transform:scale(1)">
<g transform="translate(109,26.5)">
  <g transform="translate(0,0)"><g class="path" style="transform: scale(0.91); transform-origin: -96.165px -3.67774px; animation: 0.819672s linear -0.486885s infinite normal forwards running breath-1d24a3ff-1d78-45ae-aac8-2cc2a1ea0903;"><path d="M2.07 0L14.75 0L14.75 0Q14.75-1.14 13.92-1.29L13.92-1.29L13.92-1.29Q13.66-1.35 13.41-1.35L13.41-1.35L10.66-1.35L10.66-29.71L14.75-29.71L14.75-31.05L2.07-31.05L2.07-29.71L6.21-29.71L6.21-1.35L2.07-1.35L2.07 0" fill="#ff6600" stroke="none" stroke-width="none" transform="translate(-104.57498168945312,11.847264221191415)" style="fill: rgb(255, 102, 0);"></path></g><g class="path" style="transform: scale(0.91); transform-origin: -72.925px 0.592264px; animation: 0.819672s linear -0.432787s infinite normal forwards running breath-1d24a3ff-1d78-45ae-aac8-2cc2a1ea0903;"><path d="M28.47-1.29L28.47-1.29L26.14-1.29L26.14-12.47L26.14-12.47Q26.29-17.29 29.55-19.41L29.55-19.41L29.55-19.41Q30.95-20.29 32.40-20.29L32.40-20.29L32.40-20.29Q35.56-20.29 36.70-17.34L36.70-17.34L36.70-17.34Q37.16-16.15 37.16-14.65L37.16-14.65L37.16-4.40L37.16-4.40Q37.16-2.02 35.82-1.55L35.82-1.55L35.82-1.55Q35.04-1.29 33.28-1.29L33.28-1.29L33.28 0L44.93 0L44.93 0Q44.93-1.14 44.15-1.24L44.15-1.24L44.15-1.24Q43.94-1.29 43.63-1.29L43.63-1.29L41.04-1.29L41.04-14.13L41.04-14.13Q41.04-19.31 37.47-21.53L37.47-21.53L37.47-21.53Q35.82-22.51 33.90-22.51L33.90-22.51L33.90-22.51Q30.07-22.51 27.59-19.46L27.59-19.46L27.59-19.46Q26.66-18.27 26.09-16.82L26.09-16.82L25.88-22.00L18.37-22.00L18.37-20.70L22.26-20.70L22.26-4.40L22.26-4.40Q22.26-2.02 20.91-1.55L20.91-1.55L20.91-1.55Q20.13-1.29 18.37-1.29L18.37-1.29L18.37 0L29.76 0L29.76 0Q29.76-1.14 28.98-1.24L28.98-1.24L28.98-1.24Q28.78-1.29 28.47-1.29" fill="#ff6600" stroke="none" stroke-width="none" transform="translate(-104.57498168945312,11.847264221191415)" style="fill: rgb(255, 178, 59);"></path></g><g class="path" style="transform: scale(0.91); transform-origin: -43.76px -4.71274px; animation: 0.819672s linear -0.378689s infinite normal forwards running breath-1d24a3ff-1d78-45ae-aac8-2cc2a1ea0903;"><path d="M65.53-5.49L65.94 0L73.34 0L73.34 0Q73.34-1.14 72.56-1.24L72.56-1.24L72.56-1.24Q72.36-1.29 72.05-1.29L72.05-1.29L69.46-1.29L69.36-33.64L60.56-33.64L60.56-32.35L65.47-32.35L65.47-19.72L65.47-19.72Q62.94-22.51 58.64-22.51L58.64-22.51L58.64-22.51Q52.95-22.51 50.05-17.44L50.05-17.44L50.05-17.44Q48.29-14.34 48.29-10.46L48.29-10.46L48.29-10.46Q48.29-4.04 52.33-1.09L52.33-1.09L52.33-1.09Q54.60 0.52 57.35 0.52L57.35 0.52L57.35 0.52Q62.99 0.41 65.53-5.49L65.53-5.49zM52.69-11.08L52.69-11.08L52.69-11.08Q52.69-18.37 56.62-20.55L56.62-20.55L56.62-20.55Q57.87-21.22 59.37-21.22L59.37-21.22L59.37-21.22Q63.14-21.22 64.75-17.18L64.75-17.18L64.75-17.18Q65.63-15.01 65.63-12.06L65.63-12.06L65.63-12.06Q65.63-5.85 62.52-3.05L62.52-3.05L62.52-3.05Q60.87-1.55 58.75-1.55L58.75-1.55L58.75-1.55Q54.50-1.55 53.21-6.73L53.21-6.73L53.21-6.73Q52.69-8.64 52.69-11.08" fill="#ff6600" stroke="none" stroke-width="none" transform="translate(-104.57498168945312,11.847264221191415)" style="fill: rgb(253, 158, 15);"></path></g><g class="path" style="transform: scale(0.91); transform-origin: -22.485px 0.847264px; animation: 0.819672s linear -0.32459s infinite normal forwards running breath-1d24a3ff-1d78-45ae-aac8-2cc2a1ea0903;"><path d="M86.75-1.29L86.75-1.29L84.16-1.29L84.16-22.00L76.14-22.00L76.14-20.70L80.28-20.70L80.28-4.40L80.28-4.40Q80.28-2.02 78.67-1.50L78.67-1.50L78.67-1.50Q77.90-1.29 76.14-1.29L76.14-1.29L76.14 0L88.04 0L88.04 0Q88.04-1.14 87.26-1.24L87.26-1.24L87.26-1.24Q87.00-1.29 86.75-1.29" fill="#ff6600" stroke="none" stroke-width="none" transform="translate(-104.57498168945312,11.847264221191415)" style="fill: rgb(255, 102, 0);"></path></g><g class="path" style="transform: scale(0.91); transform-origin: -22.615px -17.7077px; animation: 0.819672s linear -0.270492s infinite normal forwards running breath-1d24a3ff-1d78-45ae-aac8-2cc2a1ea0903;"><path d="M84.78-29.55L84.78-29.55L84.78-29.55Q84.78-31.37 83.17-32.14L83.17-32.14L83.17-32.14Q82.55-32.40 81.98-32.40L81.98-32.40L81.98-32.40Q80.17-32.40 79.40-30.74L79.40-30.74L79.40-30.74Q79.14-30.17 79.14-29.55L79.14-29.55L79.14-29.55Q79.14-27.64 80.85-26.91L80.85-26.91L80.85-26.91Q81.42-26.71 81.98-26.71L81.98-26.71L81.98-26.71Q83.80-26.71 84.52-28.36L84.52-28.36L84.52-28.36Q84.78-28.93 84.78-29.55" fill="#ff6600" stroke="none" stroke-width="none" transform="translate(-104.57498168945312,11.847264221191415)" style="fill: rgb(255, 178, 59);"></path></g><g class="path" style="transform: scale(0.91); transform-origin: 1.29502px -3.67774px; animation: 0.819672s linear -0.216393s infinite normal forwards running breath-1d24a3ff-1d78-45ae-aac8-2cc2a1ea0903;"><path d="M117.96-2.38L117.96-2.38L117.96-2.38Q117.96-0.21 118.58 0.10L118.58 0.10L118.58 0.10Q118.94 0.26 119.56 0.26L119.56 0.26L119.56-9.52L118.32-9.52L118.32-9.52Q115.68-0.98 107.76-0.93L107.76-0.93L107.76-0.93Q101.03-0.93 98.60-7.71L98.60-7.71L98.60-7.71Q97.41-11.02 97.41-15.53L97.41-15.53L97.41-15.53Q97.41-25.21 102.74-28.67L102.74-28.67L102.74-28.67Q105.07-30.12 107.92-30.12L107.92-30.12L107.92-30.12Q114.38-30.12 117.28-24.02L117.28-24.02L117.28-24.02Q117.80-22.93 118.16-21.79L118.16-21.79L119.41-21.79L119.25-31.31L119.25-31.31Q118.11-31.31 117.85-30.59L117.85-30.59L117.85-30.59Q117.70-29.97 117.70-28.57L117.70-28.57L117.70-28.57Q116.20-30.07 112.57-31.00L112.57-31.00L112.57-31.00Q110.19-31.57 107.71-31.57L107.71-31.57L107.71-31.57Q99.53-31.57 95.18-25.52L95.18-25.52L95.18-25.52Q92.18-21.22 92.18-15.63L92.18-15.63L92.18-15.63Q92.18-8.85 96.37-4.24L96.37-4.24L96.37-4.24Q100.82 0.52 107.97 0.52L107.97 0.52L107.97 0.52Q113.19 0.47 117.96-2.38" fill="#ff6600" stroke="none" stroke-width="none" transform="translate(-104.57498168945312,11.847264221191415)" style="fill: rgb(253, 158, 15);"></path></g><g class="path" style="transform: scale(0.91); transform-origin: 28.185px 0.692265px; animation: 0.819672s linear -0.162295s infinite normal forwards running breath-1d24a3ff-1d78-45ae-aac8-2cc2a1ea0903;"><path d="M135.04-1.29L135.04-1.29L131.31-1.29L131.31-11.59L131.31-11.59Q131.31-16.30 134.21-19.15L134.21-19.15L134.21-19.15Q135.35-20.24 136.12-20.29L136.12-20.29L136.12-20.29Q137.00-20.29 137.73-19.00L137.73-19.00L137.73-19.00Q138.56-17.55 139.28-17.34L139.28-17.34L139.28-17.34Q139.59-17.24 139.90-17.24L139.90-17.24L139.90-17.24Q141.45-17.24 141.87-18.74L141.87-18.74L141.87-18.74Q141.97-19.05 141.97-19.36L141.97-19.36L141.97-19.36Q141.97-21.69 139.59-22.20L139.59-22.20L139.59-22.20Q139.07-22.31 138.61-22.31L138.61-22.31L138.61-22.31Q135.50-22.31 133.07-19.67L133.07-19.67L133.07-19.67Q131.93-18.43 131.26-16.87L131.26-16.87L131.05-22.00L123.55-22.00L123.55-20.70L127.43-20.70L127.43-4.40L127.43-4.40Q127.43-2.02 126.08-1.55L126.08-1.55L126.08-1.55Q125.31-1.29 123.55-1.29L123.55-1.29L123.55 0L136.33 0L136.33 0Q136.33-1.14 135.55-1.24L135.55-1.24L135.55-1.24Q135.35-1.29 135.04-1.29" fill="#ff6600" stroke="none" stroke-width="none" transform="translate(-104.57498168945312,11.847264221191415)" style="fill: rgb(255, 102, 0);"></path></g><g class="path" style="transform: scale(0.91); transform-origin: 50.905px 0.852264px; animation: 0.819672s linear -0.108197s infinite normal forwards running breath-1d24a3ff-1d78-45ae-aac8-2cc2a1ea0903;"><path d="M162.47 0.52L162.47 0.52L162.47 0.52Q166.45 0.52 166.87-4.30L166.87-4.30L166.87-4.30Q166.92-4.61 166.92-4.87L166.92-4.87L165.57-4.92L165.57-4.92Q165.21-1.14 163.55-1.09L163.55-1.09L163.55-1.09Q162.21-1.19 162.16-3.78L162.16-3.78L162.16-14.70L162.16-14.70Q162.16-22.10 154.76-22.51L154.76-22.51L154.76-22.51Q154.29-22.51 153.82-22.51L153.82-22.51L153.82-22.51Q148.03-22.51 146.06-19.82L146.06-19.82L146.06-19.82Q145.44-18.94 145.44-18.06L145.44-18.06L145.44-18.06Q145.44-16.46 146.94-16.20L146.94-16.20L146.94-16.20Q147.20-16.15 147.46-16.15L147.46-16.15L147.46-16.15Q148.65-16.15 149.22-17.65L149.22-17.65L149.22-17.65Q149.94-19.56 150.20-19.93L150.20-19.93L150.20-19.93Q151.18-21.22 153.25-21.22L153.25-21.22L153.25-21.22Q158.12-20.91 158.28-15.89L158.28-15.89L158.28-12.63L158.28-12.63Q146.11-12.63 144.35-7.56L144.35-7.56L144.35-7.56Q144.04-6.57 144.04-5.43L144.04-5.43L144.04-5.43Q144.04-1.50 147.51-0.05L147.51-0.05L147.51-0.05Q148.91 0.52 150.46 0.52L150.46 0.52L150.46 0.52Q154.24 0.52 156.83-2.07L156.83-2.07L156.83-2.07Q157.76-3.05 158.22-4.14L158.22-4.14L158.22-4.14Q158.84 0.47 162.47 0.52zM152.17-1.55L152.17-1.55L152.17-1.55Q149.01-1.55 148.29-4.71L148.29-4.71L148.29-4.71Q148.13-5.43 148.13-6.31L148.13-6.31L148.13-6.31Q148.13-9.78 152.12-10.71L152.12-10.71L152.12-10.71Q154.24-11.18 158.28-11.23L158.28-11.23L158.28-7.09L158.28-7.09Q157.50-3.52 154.50-2.07L154.50-2.07L154.50-2.07Q153.31-1.55 152.17-1.55" fill="#ff6600" stroke="none" stroke-width="none" transform="translate(-104.57498168945312,11.847264221191415)" style="fill: rgb(255, 178, 59);"></path></g><g class="path" style="transform: scale(0.91); transform-origin: 73.265px 0.717264px; animation: 0.819672s linear -0.0540984s infinite normal forwards running breath-1d24a3ff-1d78-45ae-aac8-2cc2a1ea0903;"><path d="M182.45-1.35L173.13-1.35L187.16-21.17L187.16-22.26L169.66-22.26L169.20-15.53L169.97-15.53L171.21-18.37L171.21-18.37Q172.35-20.86 174.53-20.91L174.53-20.91L182.86-20.91L168.32-1.14L168.32 0L187.21 0L187.36-7.82L186.64-7.82L186.02-4.97L186.02-4.97Q185.45-2.12 183.38-1.50L183.38-1.50L183.38-1.50Q182.91-1.35 182.45-1.35L182.45-1.35" fill="#ff6600" stroke="none" stroke-width="none" transform="translate(-104.57498168945312,11.847264221191415)" style="fill: rgb(253, 158, 15);"></path></g><g class="path" style="transform: scale(0.91); transform-origin: 96.58px 0.852264px; animation: 0.819672s linear 0s infinite normal forwards running breath-1d24a3ff-1d78-45ae-aac8-2cc2a1ea0903;"><path d="M201.91-21.22L201.91-21.22L201.91-21.22Q205.53-21.22 206.72-18.17L206.72-18.17L206.72-18.17Q207.13-17.18 207.13-16.04L207.13-16.04L207.13-16.04Q207.13-13.46 204.65-12.89L204.65-12.89L204.65-12.89Q203.36-12.63 200.98-12.68L200.98-12.68L195.49-12.84L195.49-12.84Q195.75-18.79 199.37-20.60L199.37-20.60L199.37-20.60Q200.56-21.22 201.91-21.22zM210.91-4.97L210.91-4.97L209.62-5.43L209.62-5.43Q207.81-1.50 203.77-0.98L203.77-0.98L203.77-0.98Q203.25-0.93 202.79-0.93L202.79-0.93L202.79-0.93Q197.35-0.93 195.96-7.40L195.96-7.40L195.96-7.40Q195.54-9.21 195.49-11.39L195.49-11.39L201.70-11.28L201.70-11.28Q208.01-11.18 209.83-12.47L209.83-12.47L209.83-12.47Q211.22-13.51 211.22-15.42L211.22-15.42L211.22-15.42Q211.22-18.94 207.65-21.01L207.65-21.01L207.65-21.01Q205.12-22.51 201.80-22.51L201.80-22.51L201.80-22.51Q195.33-22.51 192.54-17.13L192.54-17.13L192.54-17.13Q191.09-14.34 191.09-10.82L191.09-10.82L191.09-10.82Q191.09-4.40 195.70-1.29L195.70-1.29L195.70-1.29Q198.44 0.52 201.96 0.52L201.96 0.52L201.96 0.52Q207.55 0.52 210.19-3.52L210.19-3.52L210.19-3.52Q210.60-4.24 210.91-4.97" fill="#ff6600" stroke="none" stroke-width="none" transform="translate(-104.57498168945312,11.847264221191415)" style="fill: rgb(255, 102, 0);"></path></g></g>
</g>
</g>
<style id="breath-1d24a3ff-1d78-45ae-aac8-2cc2a1ea0903" data-anikit="">@keyframes breath-1d24a3ff-1d78-45ae-aac8-2cc2a1ea0903
{
  0% {
    animation-timing-function: cubic-bezier(0.9647,0.2413,-0.0705,0.7911);
    transform: scale(0.9099999999999999);
  }
  51% {
    animation-timing-function: cubic-bezier(0.9226,0.2631,-0.0308,0.7628);
    transform: scale(1.02994);
  }
  100% {
    transform: scale(0.9099999999999999);
  }
}</style></svg>