<?xml version="1.0" encoding="utf-8"?>
<svg xmlns="http://www.w3.org/2000/svg" style="margin: auto; background: none; display: block; shape-rendering: auto;" width="251" height="53" preserveAspectRatio="xMidYMid">
<style type="text/css">
  text {
    text-anchor: middle; font-size: 47px; opacity: 0;
  }
</style>
<g style="transform-origin:125.5px 26.5px;transform:scale(1)">
<g transform="translate(125.5,26.5)">
  <g transform="translate(0,0)"><g class="path" style="transform: scale(0.91); transform-origin: -111.67px -3.20068px; animation: 1s linear -0.594s infinite normal forwards running breath-e890eec3-43fe-4ab6-af95-e66bec4ff872;"><path d="M12.85-33.05L12.85 0L3.74 0L3.74-33.05L12.85-33.05" fill="#ffb646" stroke="none" stroke-width="none" transform="translate(-119.96499633789062,13.324320556640616)" style="fill: rgb(255, 182, 70);"></path></g><g class="path" style="transform: scale(0.91); transform-origin: -86.835px 2.57432px; animation: 1s linear -0.528s infinite normal forwards running breath-e890eec3-43fe-4ab6-af95-e66bec4ff872;"><path d="M46.68-15.19L46.68-15.19L46.68-15.19Q46.68-12.51 46.02-9.59L46.02-9.59L46.02-9.59Q45.37-6.68 44.20-3.88L44.20-3.88L44.20-3.88Q43.03-1.08 41.40 1.39L41.40 1.39L41.40 1.39Q39.77 3.86 37.82 5.65L37.82 5.65L34.91 4.06L34.91 4.06Q35.53 2.91 36.08 1.49L36.08 1.49L36.08 1.49Q36.63 0.07 37.07-1.53L37.07-1.53L37.07-1.53Q37.52-3.12 37.88-4.82L37.88-4.82L37.88-4.82Q38.23-6.52 38.47-8.18L38.47-8.18L38.47-8.18Q38.72-9.85 38.84-11.42L38.84-11.42L38.84-11.42Q38.97-12.99 38.97-14.34L38.97-14.34L38.97-14.34Q38.97-15.24 38.90-16.26L38.90-16.26L38.90-16.26Q38.83-17.28 38.61-18.30L38.61-18.30L38.61-18.30Q38.39-19.32 38.03-20.26L38.03-20.26L38.03-20.26Q37.66-21.21 37.05-21.92L37.05-21.92L37.05-21.92Q36.44-22.63 35.58-23.06L35.58-23.06L35.58-23.06Q34.72-23.50 33.55-23.50L33.55-23.50L33.55-23.50Q32.40-23.50 31.51-22.98L31.51-22.98L31.51-22.98Q30.61-22.47 29.93-21.63L29.93-21.63L29.93-21.63Q29.24-20.79 28.74-19.71L28.74-19.71L28.74-19.71Q28.25-18.63 27.94-17.50L27.94-17.50L27.94-17.50Q27.63-16.36 27.49-15.26L27.49-15.26L27.49-15.26Q27.36-14.16 27.36-13.29L27.36-13.29L27.36 0L19.58 0L19.58-26.51L22.56-26.51L26.12-20.33L26.12-20.33Q26.76-21.87 27.72-23.13L27.72-23.13L27.72-23.13Q28.69-24.40 29.90-25.29L29.90-25.29L29.90-25.29Q31.12-26.19 32.60-26.67L32.60-26.67L32.60-26.67Q34.08-27.15 35.80-27.15L35.80-27.15L35.80-27.15Q38.55-27.15 40.60-26.25L40.60-26.25L40.60-26.25Q42.64-25.36 43.99-23.76L43.99-23.76L43.99-23.76Q45.35-22.17 46.01-19.98L46.01-19.98L46.01-19.98Q46.68-17.79 46.68-15.19" fill="#ffb646" stroke="none" stroke-width="none" transform="translate(-119.96499633789062,13.324320556640616)" style="fill: rgb(255, 153, 0);"></path></g><g class="path" style="transform: scale(0.91); transform-origin: -55.545px -4.49568px; animation: 1s linear -0.462s infinite normal forwards running breath-e890eec3-43fe-4ab6-af95-e66bec4ff872;"><path d="M78.51-36.26L78.51 0L75.53 0L72.08-5.76L72.08-5.76Q71.58-4.31 70.70-3.14L70.70-3.14L70.70-3.14Q69.81-1.97 68.65-1.14L68.65-1.14L68.65-1.14Q67.49-0.30 66.11 0.16L66.11 0.16L66.11 0.16Q64.72 0.62 63.18 0.62L63.18 0.62L63.18 0.62Q60.15 0.62 57.76-0.46L57.76-0.46L57.76-0.46Q55.38-1.54 53.72-3.41L53.72-3.41L53.72-3.41Q52.07-5.28 51.20-7.80L51.20-7.80L51.20-7.80Q50.33-10.33 50.33-13.22L50.33-13.22L50.33-13.22Q50.33-16.11 51.20-18.63L51.20-18.63L51.20-18.63Q52.07-21.16 53.72-23.02L53.72-23.02L53.72-23.02Q55.38-24.88 57.76-25.96L57.76-25.96L57.76-25.96Q60.15-27.03 63.18-27.03L63.18-27.03L63.18-27.03Q65.50-27.03 67.44-26.14L67.44-26.14L67.44-26.14Q69.38-25.24 70.75-23.34L70.75-23.34L70.75-36.26L78.51-36.26zM70.71-13.22L70.71-13.22L70.71-13.22Q70.71-14.14 70.57-15.24L70.57-15.24L70.57-15.24Q70.43-16.34 70.13-17.46L70.13-17.46L70.13-17.46Q69.83-18.59 69.35-19.64L69.35-19.64L69.35-19.64Q68.87-20.70 68.17-21.53L68.17-21.53L68.17-21.53Q67.47-22.35 66.54-22.85L66.54-22.85L66.54-22.85Q65.61-23.34 64.42-23.34L64.42-23.34L64.42-23.34Q63.11-23.34 62.15-22.87L62.15-22.87L62.15-22.87Q61.18-22.40 60.49-21.61L60.49-21.61L60.49-21.61Q59.81-20.81 59.36-19.78L59.36-19.78L59.36-19.78Q58.91-18.75 58.66-17.63L58.66-17.63L58.66-17.63Q58.41-16.50 58.30-15.36L58.30-15.36L58.30-15.36Q58.20-14.23 58.20-13.22L58.20-13.22L58.20-13.22Q58.20-12.21 58.30-11.07L58.30-11.07L58.30-11.07Q58.41-9.94 58.66-8.81L58.66-8.81L58.66-8.81Q58.91-7.69 59.36-6.64L59.36-6.64L59.36-6.64Q59.81-5.60 60.49-4.81L60.49-4.81L60.49-4.81Q61.18-4.02 62.15-3.55L62.15-3.55L62.15-3.55Q63.11-3.08 64.42-3.08L64.42-3.08L64.42-3.08Q65.73-3.08 66.71-3.53L66.71-3.53L66.71-3.53Q67.70-3.99 68.40-4.78L68.40-4.78L68.40-4.78Q69.10-5.58 69.55-6.60L69.55-6.60L69.55-6.60Q70.00-7.62 70.25-8.76L70.25-8.76L70.25-8.76Q70.50-9.89 70.60-11.04L70.60-11.04L70.60-11.04Q70.71-12.19 70.71-13.22" fill="#ffb646" stroke="none" stroke-width="none" transform="translate(-119.96499633789062,13.324320556640616)" style="fill: rgb(255, 102, 0);"></path></g><g class="path" style="transform: scale(0.91); transform-origin: -31.07px -19.5707px; animation: 1s linear -0.396s infinite normal forwards running breath-e890eec3-43fe-4ab6-af95-e66bec4ff872;"><path d="M93.13-32.91L93.13-32.91L93.13-32.91Q93.13-32.04 92.80-31.26L92.80-31.26L92.80-31.26Q92.46-30.48 91.89-29.90L91.89-29.90L91.89-29.90Q91.31-29.33 90.53-29.00L90.53-29.00L90.53-29.00Q89.75-28.66 88.88-28.66L88.88-28.66L88.88-28.66Q88.01-28.66 87.24-29.00L87.24-29.00L87.24-29.00Q86.47-29.33 85.90-29.90L85.90-29.90L85.90-29.90Q85.33-30.48 84.99-31.26L84.99-31.26L84.99-31.26Q84.66-32.04 84.66-32.91L84.66-32.91L84.66-32.91Q84.66-33.78 84.99-34.55L84.99-34.55L84.99-34.55Q85.33-35.32 85.90-35.89L85.90-35.89L85.90-35.89Q86.47-36.47 87.24-36.80L87.24-36.80L87.24-36.80Q88.01-37.13 88.88-37.13L88.88-37.13L88.88-37.13Q89.75-37.13 90.53-36.80L90.53-36.80L90.53-36.80Q91.31-36.47 91.89-35.89L91.89-35.89L91.89-35.89Q92.46-35.32 92.80-34.55L92.80-34.55L92.80-34.55Q93.13-33.78 93.13-32.91" fill="#ffb646" stroke="none" stroke-width="none" transform="translate(-119.96499633789062,13.324320556640616)" style="fill: rgb(255, 182, 70);"></path></g><g class="path" style="transform: scale(0.91); transform-origin: -31.075px 0.084321px; animation: 1s linear -0.33s infinite normal forwards running breath-e890eec3-43fe-4ab6-af95-e66bec4ff872;"><path d="M92.78-26.48L92.78 0L85.00 0L85.00-26.48L92.78-26.48" fill="#ffb646" stroke="none" stroke-width="none" transform="translate(-119.96499633789062,13.324320556640616)" style="fill: rgb(255, 153, 0);"></path></g><g class="path" style="transform: scale(0.91); transform-origin: -6.11499px -3.25568px; animation: 1s linear -0.264s infinite normal forwards running breath-e890eec3-43fe-4ab6-af95-e66bec4ff872;"><path d="M129.80-24.85L129.80-24.85L125.88-23.20L125.88-23.20Q125.42-24.69 124.65-25.93L124.65-25.93L124.65-25.93Q123.88-27.17 122.81-28.06L122.81-28.06L122.81-28.06Q121.75-28.94 120.39-29.43L120.39-29.43L120.39-29.43Q119.04-29.93 117.43-29.93L117.43-29.93L117.43-29.93Q115.71-29.93 114.28-29.36L114.28-29.36L114.28-29.36Q112.84-28.80 111.71-27.81L111.71-27.81L111.71-27.81Q110.57-26.83 109.72-25.52L109.72-25.52L109.72-25.52Q108.87-24.21 108.30-22.73L108.30-22.73L108.30-22.73Q107.72-21.25 107.45-19.67L107.45-19.67L107.45-19.67Q107.17-18.08 107.17-16.57L107.17-16.57L107.17-16.57Q107.17-14.16 107.74-11.77L107.74-11.77L107.74-11.77Q108.30-9.39 109.53-7.48L109.53-7.48L109.53-7.48Q110.75-5.58 112.70-4.39L112.70-4.39L112.70-4.39Q114.65-3.21 117.43-3.21L117.43-3.21L117.43-3.21Q118.90-3.21 120.21-3.71L120.21-3.71L120.21-3.71Q121.52-4.20 122.58-5.06L122.58-5.06L122.58-5.06Q123.65-5.92 124.45-7.09L124.45-7.09L124.45-7.09Q125.26-8.26 125.74-9.62L125.74-9.62L129.71-8.03L129.71-8.03Q128.84-5.85 127.32-4.21L127.32-4.21L127.32-4.21Q125.81-2.57 123.87-1.49L123.87-1.49L123.87-1.49Q121.93-0.41 119.71 0.13L119.71 0.13L119.71 0.13Q117.50 0.67 115.25 0.67L115.25 0.67L115.25 0.67Q112.82 0.67 110.58 0.07L110.58 0.07L110.58 0.07Q108.34-0.53 106.42-1.63L106.42-1.63L106.42-1.63Q104.49-2.73 102.92-4.29L102.92-4.29L102.92-4.29Q101.34-5.85 100.23-7.76L100.23-7.76L100.23-7.76Q99.12-9.66 98.51-11.90L98.51-11.90L98.51-11.90Q97.90-14.14 97.90-16.57L97.90-16.57L97.90-16.57Q97.90-19.00 98.51-21.24L98.51-21.24L98.51-21.24Q99.12-23.48 100.23-25.39L100.23-25.39L100.23-25.39Q101.34-27.31 102.92-28.87L102.92-28.87L102.92-28.87Q104.49-30.43 106.42-31.53L106.42-31.53L106.42-31.53Q108.34-32.63 110.58-33.23L110.58-33.23L110.58-33.23Q112.82-33.83 115.25-33.83L115.25-33.83L115.25-33.83Q117.59-33.83 119.83-33.28L119.83-33.28L119.83-33.28Q122.07-32.73 123.99-31.61L123.99-31.61L123.99-31.61Q125.92-30.50 127.43-28.81L127.43-28.81L127.43-28.81Q128.93-27.13 129.80-24.85" fill="#ffb646" stroke="none" stroke-width="none" transform="translate(-119.96499633789062,13.324320556640616)" style="fill: rgb(255, 102, 0);"></path></g><g class="path" style="transform: scale(0.91); transform-origin: 25.925px -0.250679px; animation: 1s linear -0.198s infinite normal forwards running breath-e890eec3-43fe-4ab6-af95-e66bec4ff872;"><path d="M157.16-24.17L157.16-24.17L152.80-16.94L152.80-16.94Q152.52-17.85 152.08-19.00L152.08-19.00L152.08-19.00Q151.65-20.15 151.01-21.15L151.01-21.15L151.01-21.15Q150.36-22.15 149.47-22.82L149.47-22.82L149.47-22.82Q148.57-23.50 147.40-23.50L147.40-23.50L147.40-23.50Q146.32-23.50 145.53-22.95L145.53-22.95L145.53-22.95Q144.74-22.40 144.19-21.51L144.19-21.51L144.19-21.51Q143.64-20.63 143.28-19.52L143.28-19.52L143.28-19.52Q142.93-18.41 142.73-17.27L142.73-17.27L142.73-17.27Q142.54-16.13 142.47-15.09L142.47-15.09L142.47-15.09Q142.40-14.04 142.40-13.29L142.40-13.29L142.40 0L134.62 0L134.62-26.51L137.60-26.51L140.75-20.33L140.75-20.33Q141.39-21.82 142.22-23.08L142.22-23.08L142.22-23.08Q143.04-24.33 144.12-25.23L144.12-25.23L144.12-25.23Q145.20-26.14 146.57-26.64L146.57-26.64L146.57-26.64Q147.93-27.15 149.65-27.15L149.65-27.15L149.65-27.15Q150.55-27.15 151.65-27.00L151.65-27.00L151.65-27.00Q152.75-26.85 153.81-26.49L153.81-26.49L153.81-26.49Q154.86-26.14 155.76-25.57L155.76-25.57L155.76-25.57Q156.65-24.99 157.16-24.17" fill="#ffb646" stroke="none" stroke-width="none" transform="translate(-119.96499633789062,13.324320556640616)" style="fill: rgb(255, 182, 70);"></path></g><g class="path" style="transform: scale(0.91); transform-origin: 52.495px 0.0143213px; animation: 1s linear -0.132s infinite normal forwards running breath-e890eec3-43fe-4ab6-af95-e66bec4ff872;"><path d="M186.55-26.51L186.55 0L178.80 0L178.80-3.17L178.80-3.17Q177.42-1.29 175.48-0.38L175.48-0.38L175.48-0.38Q173.54 0.53 171.22 0.53L171.22 0.53L171.22 0.53Q168.19 0.53 165.81-0.55L165.81-0.55L165.81-0.55Q163.42-1.63 161.77-3.50L161.77-3.50L161.77-3.50Q160.12-5.37 159.24-7.89L159.24-7.89L159.24-7.89Q158.37-10.42 158.37-13.31L158.37-13.31L158.37-13.31Q158.37-16.20 159.24-18.73L159.24-18.73L159.24-18.73Q160.12-21.25 161.77-23.12L161.77-23.12L161.77-23.12Q163.42-24.99 165.81-26.07L165.81-26.07L165.81-26.07Q168.19-27.15 171.22-27.15L171.22-27.15L171.22-27.15Q172.76-27.15 174.15-26.69L174.15-26.69L174.15-26.69Q175.54-26.23 176.70-25.39L176.70-25.39L176.70-25.39Q177.86-24.56 178.74-23.37L178.74-23.37L178.74-23.37Q179.62-22.19 180.13-20.75L180.13-20.75L183.57-26.51L186.55-26.51zM178.75-13.31L178.75-13.31L178.75-13.31Q178.75-14.34 178.65-15.49L178.65-15.49L178.65-15.49Q178.54-16.64 178.29-17.76L178.29-17.76L178.29-17.76Q178.04-18.89 177.59-19.91L177.59-19.91L177.59-19.91Q177.15-20.93 176.45-21.72L176.45-21.72L176.45-21.72Q175.75-22.51 174.76-22.97L174.76-22.97L174.76-22.97Q173.77-23.43 172.46-23.43L172.46-23.43L172.46-23.43Q171.16-23.43 170.19-22.96L170.19-22.96L170.19-22.96Q169.23-22.49 168.54-21.70L168.54-21.70L168.54-21.70Q167.85-20.91 167.40-19.87L167.40-19.87L167.40-19.87Q166.96-18.84 166.70-17.72L166.70-17.72L166.70-17.72Q166.45-16.59 166.35-15.46L166.35-15.46L166.35-15.46Q166.24-14.32 166.24-13.31L166.24-13.31L166.24-13.31Q166.24-12.30 166.35-11.15L166.35-11.15L166.35-11.15Q166.45-10.01 166.70-8.88L166.70-8.88L166.70-8.88Q166.96-7.76 167.40-6.72L167.40-6.72L167.40-6.72Q167.85-5.69 168.54-4.90L168.54-4.90L168.54-4.90Q169.23-4.11 170.19-3.64L170.19-3.64L170.19-3.64Q171.16-3.17 172.46-3.17L172.46-3.17L172.46-3.17Q173.66-3.17 174.59-3.66L174.59-3.66L174.59-3.66Q175.52-4.15 176.22-4.98L176.22-4.98L176.22-4.98Q176.92-5.81 177.40-6.86L177.40-6.86L177.40-6.86Q177.88-7.92 178.18-9.04L178.18-9.04L178.18-9.04Q178.48-10.17 178.61-11.28L178.61-11.28L178.61-11.28Q178.75-12.39 178.75-13.31" fill="#ffb646" stroke="none" stroke-width="none" transform="translate(-119.96499633789062,13.324320556640616)" style="fill: rgb(255, 153, 0);"></path></g><g class="path" style="transform: scale(0.91); transform-origin: 82.835px 0.0693207px; animation: 1s linear -0.066s infinite normal forwards running breath-e890eec3-43fe-4ab6-af95-e66bec4ff872;"><path d="M214.02-3.08L214.02 0L191.58 0L191.58-3.08L191.58-3.08L205.46-23.43L191.58-23.43L191.58-26.51L214.02-26.51L214.02-23.43L200.14-3.08L214.02-3.08" fill="#ffb646" stroke="none" stroke-width="none" transform="translate(-119.96499633789062,13.324320556640616)" style="fill: rgb(255, 102, 0);"></path></g><g class="path" style="transform: scale(0.91); transform-origin: 110.19px 0.0143213px; animation: 1s linear 0s infinite normal forwards running breath-e890eec3-43fe-4ab6-af95-e66bec4ff872;"><path d="M224.56-12.58L224.56-12.58L224.56-12.58Q225.98-12.25 227.40-12.07L227.40-12.07L227.40-12.07Q228.83-11.89 230.27-11.89L230.27-11.89L230.27-11.89Q231.79-11.89 233.08-12.17L233.08-12.17L233.08-12.17Q234.38-12.46 235.33-13.14L235.33-13.14L235.33-13.14Q236.29-13.82 236.84-14.94L236.84-14.94L236.84-14.94Q237.39-16.06 237.39-17.74L237.39-17.74L237.39-17.74Q237.39-19.09 237.02-20.22L237.02-20.22L237.02-20.22Q236.65-21.34 235.93-22.15L235.93-22.15L235.93-22.15Q235.21-22.95 234.15-23.40L234.15-23.40L234.15-23.40Q233.10-23.84 231.70-23.84L231.70-23.84L231.70-23.84Q230.39-23.84 229.34-23.36L229.34-23.36L229.34-23.36Q228.30-22.88 227.51-22.07L227.51-22.07L227.51-22.07Q226.72-21.25 226.15-20.17L226.15-20.17L226.15-20.17Q225.59-19.09 225.22-17.92L225.22-17.92L225.22-17.92Q224.86-16.75 224.70-15.56L224.70-15.56L224.70-15.56Q224.54-14.37 224.54-13.31L224.54-13.31L224.54-13.31Q224.54-13.13 224.54-12.94L224.54-12.94L224.54-12.94Q224.54-12.76 224.56-12.58zM243.67-17.81L243.67-17.81L243.67-17.81Q243.67-16.18 243.15-14.91L243.15-14.91L243.15-14.91Q242.62-13.63 241.71-12.67L241.71-12.67L241.71-12.67Q240.81-11.70 239.61-11.04L239.61-11.04L239.61-11.04Q238.42-10.37 237.07-9.95L237.07-9.95L237.07-9.95Q235.71-9.52 234.28-9.34L234.28-9.34L234.28-9.34Q232.84-9.16 231.49-9.16L231.49-9.16L231.49-9.16Q229.77-9.16 228.09-9.40L228.09-9.40L228.09-9.40Q226.42-9.64 224.79-10.17L224.79-10.17L224.79-10.17Q225.04-8.65 225.59-7.29L225.59-7.29L225.59-7.29Q226.14-5.92 227.06-4.90L227.06-4.90L227.06-4.90Q227.98-3.88 229.32-3.28L229.32-3.28L229.32-3.28Q230.66-2.69 232.50-2.69L232.50-2.69L232.50-2.69Q233.71-2.69 234.82-3.05L234.82-3.05L234.82-3.05Q235.92-3.42 236.84-4.08L236.84-4.08L236.84-4.08Q237.75-4.75 238.45-5.67L238.45-5.67L238.45-5.67Q239.15-6.59 239.59-7.71L239.59-7.71L242.94-6.47L242.94-6.47Q242.18-4.66 240.86-3.34L240.86-3.34L240.86-3.34Q239.54-2.02 237.88-1.16L237.88-1.16L237.88-1.16Q236.22-0.30 234.35 0.11L234.35 0.11L234.35 0.11Q232.48 0.53 230.64 0.53L230.64 0.53L230.64 0.53Q227.61 0.53 225.04-0.49L225.04-0.49L225.04-0.49Q222.47-1.51 220.61-3.35L220.61-3.35L220.61-3.35Q218.75-5.19 217.70-7.73L217.70-7.73L217.70-7.73Q216.64-10.28 216.64-13.31L216.64-13.31L216.64-13.31Q216.64-16.34 217.70-18.89L217.70-18.89L217.70-18.89Q218.75-21.43 220.61-23.27L220.61-23.27L220.61-23.27Q222.47-25.11 225.04-26.13L225.04-26.13L225.04-26.13Q227.61-27.15 230.64-27.15L230.64-27.15L230.64-27.15Q232.11-27.15 233.65-26.94L233.65-26.94L233.65-26.94Q235.18-26.74 236.63-26.29L236.63-26.29L236.63-26.29Q238.08-25.84 239.36-25.13L239.36-25.13L239.36-25.13Q240.65-24.42 241.60-23.37L241.60-23.37L241.60-23.37Q242.55-22.33 243.11-20.95L243.11-20.95L243.11-20.95Q243.67-19.58 243.67-17.81" fill="#ffb646" stroke="none" stroke-width="none" transform="translate(-119.96499633789062,13.324320556640616)" style="fill: rgb(255, 182, 70);"></path></g></g>
</g>
</g>
<style id="breath-e890eec3-43fe-4ab6-af95-e66bec4ff872" data-anikit="">@keyframes breath-e890eec3-43fe-4ab6-af95-e66bec4ff872
{
  0% {
    animation-timing-function: cubic-bezier(0.9647,0.2413,-0.0705,0.7911);
    transform: scale(0.9099999999999999);
  }
  51% {
    animation-timing-function: cubic-bezier(0.9226,0.2631,-0.0308,0.7628);
    transform: scale(1.02994);
  }
  100% {
    transform: scale(0.9099999999999999);
  }
}</style></svg>