<?xml version="1.0" encoding="utf-8"?>
<svg xmlns="http://www.w3.org/2000/svg" style="margin: auto; background: none; display: block; shape-rendering: auto;" width="265" height="152" preserveAspectRatio="xMidYMid">
<style type="text/css">
  text {
    text-anchor: middle; font-size: 72px; opacity: 0;
  }
</style>
<g style="transform-origin: 132.5px 76px; transform: scale(1.35849);">
<g transform="translate(132.5,76)">
  <g transform="translate(0,0)"><g class="path" style="transform: matrix(1, 0, 0, 1, 0, 0); transform-origin: -72.54px -3.4695px; animation: 0.925926s linear -0.534722s infinite normal forwards running bounce-170a525e-9d59-4e5f-8134-2aab9a68a735;"><path d="M2.07 0L24.74 0L25.00-10.35L23.96-10.35L23.08-6.88L23.08-6.88Q21.84-2.12 18.94-1.45L18.94-1.45L18.94-1.45Q18.32-1.35 17.75-1.35L17.75-1.35L10.66-1.35L10.66-29.71L15.01-29.71L15.01-31.05L2.07-31.05L2.07-29.71L6.21-29.71L6.21-1.35L2.07-1.35L2.07 0" fill="#ff6600" stroke="none" stroke-width="none" transform="translate(-86.07498168945312,12.055505218505859)" style="fill: rgb(255, 102, 0);"></path></g><g class="path" style="transform: matrix(1, 0, 0, 1, 0, 0); transform-origin: -47.28px 1.0605px; animation: 0.925926s linear -0.458333s infinite normal forwards running bounce-170a525e-9d59-4e5f-8134-2aab9a68a735;"><path d="M31.99-11.02L31.99-11.02L31.99-11.02Q31.99-19.05 36.39-20.81L36.39-20.81L36.39-20.81Q37.52-21.22 38.77-21.22L38.77-21.22L38.77-21.22Q44.51-21.22 45.44-13.97L45.44-13.97L45.44-13.97Q45.60-12.73 45.60-11.23L45.60-11.23L45.60-11.23Q45.60-2.54 40.84-1.04L40.84-1.04L40.84-1.04Q39.91-0.78 38.92-0.78L38.92-0.78L38.92-0.78Q33.69-0.78 32.35-6.99L32.35-6.99L32.35-6.99Q31.99-8.80 31.99-11.02zM38.92-22.51L38.92-22.51L38.92-22.51Q33.95-22.51 30.64-19.10L30.64-19.10L30.64-19.10Q27.59-15.94 27.59-11.23L27.59-11.23L27.59-11.23Q27.59-4.71 32.35-1.45L32.35-1.45L32.35-1.45Q35.25 0.52 38.77 0.52L38.77 0.52L38.77 0.52Q43.74 0.52 47.00-3.00L47.00-3.00L47.00-3.00Q50.00-6.21 50.00-11.02L50.00-11.02L50.00-11.02Q50.00-17.55 45.18-20.70L45.18-20.70L45.18-20.70Q42.34-22.51 38.92-22.51" fill="#ff6600" stroke="none" stroke-width="none" transform="translate(-86.07498168945312,12.055505218505859)" style="fill: rgb(255, 178, 59);"></path></g><g class="path" style="transform: matrix(1, 0, 0, 1, 0, 0); transform-origin: -20.755px 1.0605px; animation: 0.925926s linear -0.381944s infinite normal forwards running bounce-170a525e-9d59-4e5f-8134-2aab9a68a735;"><path d="M72.31 0.52L72.31 0.52L72.31 0.52Q76.29 0.52 76.71-4.30L76.71-4.30L76.71-4.30Q76.76-4.61 76.76-4.87L76.76-4.87L75.41-4.92L75.41-4.92Q75.05-1.14 73.39-1.09L73.39-1.09L73.39-1.09Q72.05-1.19 72.00-3.78L72.00-3.78L72.00-14.70L72.00-14.70Q72.00-22.10 64.59-22.51L64.59-22.51L64.59-22.51Q64.13-22.51 63.66-22.51L63.66-22.51L63.66-22.51Q57.87-22.51 55.90-19.82L55.90-19.82L55.90-19.82Q55.28-18.94 55.28-18.06L55.28-18.06L55.28-18.06Q55.28-16.46 56.78-16.20L56.78-16.20L56.78-16.20Q57.04-16.15 57.30-16.15L57.30-16.15L57.30-16.15Q58.49-16.15 59.06-17.65L59.06-17.65L59.06-17.65Q59.78-19.56 60.04-19.93L60.04-19.93L60.04-19.93Q61.02-21.22 63.09-21.22L63.09-21.22L63.09-21.22Q67.96-20.91 68.11-15.89L68.11-15.89L68.11-12.63L68.11-12.63Q55.95-12.63 54.19-7.56L54.19-7.56L54.19-7.56Q53.88-6.57 53.88-5.43L53.88-5.43L53.88-5.43Q53.88-1.50 57.35-0.05L57.35-0.05L57.35-0.05Q58.75 0.52 60.30 0.52L60.30 0.52L60.30 0.52Q64.08 0.52 66.66-2.07L66.66-2.07L66.66-2.07Q67.60-3.05 68.06-4.14L68.06-4.14L68.06-4.14Q68.68 0.47 72.31 0.52zM62.01-1.55L62.01-1.55L62.01-1.55Q58.85-1.55 58.12-4.71L58.12-4.71L58.12-4.71Q57.97-5.43 57.97-6.31L57.97-6.31L57.97-6.31Q57.97-9.78 61.95-10.71L61.95-10.71L61.95-10.71Q64.08-11.18 68.11-11.23L68.11-11.23L68.11-7.09L68.11-7.09Q67.34-3.52 64.33-2.07L64.33-2.07L64.33-2.07Q63.14-1.55 62.01-1.55" fill="#ff6600" stroke="none" stroke-width="none" transform="translate(-86.07498168945312,12.055505218505859)" style="fill: rgb(253, 158, 15);"></path></g><g class="path" style="transform: matrix(1, 0, 0, 1, 0, 0); transform-origin: 5.54002px -4.5045px; animation: 0.925926s linear -0.305556s infinite normal forwards running bounce-170a525e-9d59-4e5f-8134-2aab9a68a735;"><path d="M96.32-5.49L96.74 0L104.14 0L104.14 0Q104.14-1.14 103.36-1.24L103.36-1.24L103.36-1.24Q103.15-1.29 102.84-1.29L102.84-1.29L100.25-1.29L100.15-33.64L91.35-33.64L91.35-32.35L96.27-32.35L96.27-19.72L96.27-19.72Q93.73-22.51 89.44-22.51L89.44-22.51L89.44-22.51Q83.74-22.51 80.85-17.44L80.85-17.44L80.85-17.44Q79.09-14.34 79.09-10.46L79.09-10.46L79.09-10.46Q79.09-4.04 83.12-1.09L83.12-1.09L83.12-1.09Q85.40 0.52 88.14 0.52L88.14 0.52L88.14 0.52Q93.79 0.41 96.32-5.49L96.32-5.49zM83.49-11.08L83.49-11.08L83.49-11.08Q83.49-18.37 87.42-20.55L87.42-20.55L87.42-20.55Q88.66-21.22 90.16-21.22L90.16-21.22L90.16-21.22Q93.94-21.22 95.54-17.18L95.54-17.18L95.54-17.18Q96.42-15.01 96.42-12.06L96.42-12.06L96.42-12.06Q96.42-5.85 93.32-3.05L93.32-3.05L93.32-3.05Q91.66-1.55 89.54-1.55L89.54-1.55L89.54-1.55Q85.30-1.55 84.00-6.73L84.00-6.73L84.00-6.73Q83.49-8.64 83.49-11.08" fill="#ff6600" stroke="none" stroke-width="none" transform="translate(-86.07498168945312,12.055505218505859)" style="fill: rgb(255, 102, 0);"></path></g><g class="path" style="transform: matrix(1, 0, 0, 1, 0, 0); transform-origin: 26.81px 1.0555px; animation: 0.925926s linear -0.229167s infinite normal forwards running bounce-170a525e-9d59-4e5f-8134-2aab9a68a735;"><path d="M117.54-1.29L117.54-1.29L114.95-1.29L114.95-22.00L106.93-22.00L106.93-20.70L111.07-20.70L111.07-4.40L111.07-4.40Q111.07-2.02 109.47-1.50L109.47-1.50L109.47-1.50Q108.69-1.29 106.93-1.29L106.93-1.29L106.93 0L118.84 0L118.84 0Q118.84-1.14 118.06-1.24L118.06-1.24L118.06-1.24Q117.80-1.29 117.54-1.29" fill="#ff6600" stroke="none" stroke-width="none" transform="translate(-86.07498168945312,12.055505218505859)" style="fill: rgb(255, 178, 59);"></path></g><g class="path" style="transform: matrix(1, 0, 0, 1, 0, 0); transform-origin: 26.68px -17.4995px; animation: 0.925926s linear -0.152778s infinite normal forwards running bounce-170a525e-9d59-4e5f-8134-2aab9a68a735;"><path d="M115.58-29.55L115.58-29.55L115.58-29.55Q115.58-31.37 113.97-32.14L113.97-32.14L113.97-32.14Q113.35-32.40 112.78-32.40L112.78-32.40L112.78-32.40Q110.97-32.40 110.19-30.74L110.19-30.74L110.19-30.74Q109.93-30.17 109.93-29.55L109.93-29.55L109.93-29.55Q109.93-27.64 111.64-26.91L111.64-26.91L111.64-26.91Q112.21-26.71 112.78-26.71L112.78-26.71L112.78-26.71Q114.59-26.71 115.32-28.36L115.32-28.36L115.32-28.36Q115.58-28.93 115.58-29.55" fill="#ff6600" stroke="none" stroke-width="none" transform="translate(-86.07498168945312,12.055505218505859)" style="fill: rgb(253, 158, 15);"></path></g><g class="path" style="transform: matrix(1, 0, 0, 1, 0, 0); transform-origin: 49.14px 0.800505px; animation: 0.925926s linear -0.0763889s infinite normal forwards running bounce-170a525e-9d59-4e5f-8134-2aab9a68a735;"><path d="M132.03-1.29L132.03-1.29L129.71-1.29L129.71-12.47L129.71-12.47Q129.86-17.29 133.12-19.41L133.12-19.41L133.12-19.41Q134.52-20.29 135.97-20.29L135.97-20.29L135.97-20.29Q139.13-20.29 140.26-17.34L140.26-17.34L140.26-17.34Q140.73-16.15 140.73-14.65L140.73-14.65L140.73-4.40L140.73-4.40Q140.73-2.02 139.38-1.55L139.38-1.55L139.38-1.55Q138.61-1.29 136.85-1.29L136.85-1.29L136.85 0L148.49 0L148.49 0Q148.49-1.14 147.72-1.24L147.72-1.24L147.72-1.24Q147.51-1.29 147.20-1.29L147.20-1.29L144.61-1.29L144.61-14.13L144.61-14.13Q144.61-19.31 141.04-21.53L141.04-21.53L141.04-21.53Q139.38-22.51 137.47-22.51L137.47-22.51L137.47-22.51Q133.64-22.51 131.15-19.46L131.15-19.46L131.15-19.46Q130.22-18.27 129.65-16.82L129.65-16.82L129.45-22.00L121.94-22.00L121.94-20.70L125.82-20.70L125.82-4.40L125.82-4.40Q125.82-2.02 124.48-1.55L124.48-1.55L124.48-1.55Q123.70-1.29 121.94-1.29L121.94-1.29L121.94 0L133.33 0L133.33 0Q133.33-1.14 132.55-1.24L132.55-1.24L132.55-1.24Q132.34-1.29 132.03-1.29" fill="#ff6600" stroke="none" stroke-width="none" transform="translate(-86.07498168945312,12.055505218505859)" style="fill: rgb(255, 102, 0);"></path></g><g class="path" style="transform: matrix(1, 0, 0, 1, 0, 0); transform-origin: 77.225px 4.31551px; animation: 0.925926s linear 0s infinite normal forwards running bounce-170a525e-9d59-4e5f-8134-2aab9a68a735;"><path d="M156.52-14.34L156.52-14.34L156.52-14.34Q156.62-21.17 161.69-21.22L161.69-21.22L161.69-21.22Q166.76-21.12 166.82-14.34L166.82-14.34L166.82-14.34Q166.71-7.30 161.69-7.25L161.69-7.25L161.69-7.25Q156.57-7.35 156.52-14.34zM161.74-22.51L161.74-22.51L161.74-22.51Q157.08-22.51 154.34-19.51L154.34-19.51L154.34-19.51Q152.38-17.29 152.38-14.29L152.38-14.29L152.38-14.29Q152.38-10.35 156.21-7.76L156.21-7.76L156.21-7.76Q156.57-7.50 156.93-7.30L156.93-7.30L156.93-7.30Q153.62-7.30 152.79-4.45L152.79-4.45L152.79-4.45Q152.63-3.78 152.63-3.11L152.63-3.11L152.63-3.11Q152.69-0.36 154.86 0.98L154.86 0.98L154.86 0.98Q153.15 2.79 153.15 4.66L153.15 4.66L153.15 4.66Q153.15 7.50 156.52 8.90L156.52 8.90L156.52 8.90Q158.64 9.83 161.74 9.83L161.74 9.83L161.74 9.83Q169.61 9.83 172.15 6.00L172.15 6.00L172.15 6.00Q172.97 4.71 172.97 3.26L172.97 3.26L172.97 3.26Q172.97-1.19 167.85-1.86L167.85-1.86L167.85-1.86Q167.18-1.97 166.45-1.97L166.45-1.97L157.03-2.17L157.03-2.17Q154.65-2.33 154.60-4.24L154.60-4.24L154.60-4.24Q154.60-5.59 156.31-5.95L156.31-5.95L156.31-5.95Q156.67-6.00 157.08-6.00L157.08-6.00L161.64-5.95L161.64-5.95Q166.25-5.95 168.99-9.06L168.99-9.06L168.99-9.06Q170.96-11.28 170.96-14.34L170.96-14.34L170.96-14.34Q170.90-18.22 167.95-20.55L167.95-20.55L167.95-20.55Q168.42-22.20 169.71-22.51L169.71-22.51L169.71-22.51Q169.92-22.57 170.13-22.57L170.13-22.57L170.13-22.57Q170.85-22.57 171.68-21.79L171.68-21.79L171.68-21.79Q172.25-21.27 172.72-21.27L172.72-21.27L172.72-21.27Q174.01-21.58 174.22-22.93L174.22-22.93L174.22-22.93Q174.22-24.53 172.72-25.10L172.72-25.10L172.72-25.10Q172.15-25.31 171.58-25.31L171.58-25.31L171.58-25.31Q169.14-25.31 167.64-23.14L167.64-23.14L167.64-23.14Q167.07-22.31 166.76-21.32L166.76-21.32L166.76-21.32Q164.43-22.51 161.74-22.51zM161.74 8.49L161.74 8.49L161.74 8.49Q156.62 8.49 155.27 5.80L155.27 5.80L155.27 5.80Q154.91 5.07 154.91 4.35L154.91 4.35L154.91 4.35Q154.96 2.95 156.15 1.55L156.15 1.55L156.15 1.55Q157.19 1.76 157.86 1.76L157.86 1.76L165.83 1.86L165.83 1.86Q169.71 1.92 170.33 3.62L170.33 3.62L170.33 3.62Q170.49 4.04 170.49 4.66L170.49 4.66L170.49 4.66Q170.49 6.94 166.25 7.97L166.25 7.97L166.25 7.97Q164.18 8.49 161.74 8.49" fill="#ff6600" stroke="none" stroke-width="none" transform="translate(-86.07498168945312,12.055505218505859)" style="fill: rgb(255, 178, 59);"></path></g></g>
</g>
</g>
<style id="bounce-170a525e-9d59-4e5f-8134-2aab9a68a735" data-anikit="">@keyframes bounce-170a525e-9d59-4e5f-8134-2aab9a68a735
{
  0% {
    animation-timing-function: cubic-bezier(0.1361,0.2514,0.2175,0.8786);
    transform: translate(0,0px) scaleY(1);
  }
  37% {
    animation-timing-function: cubic-bezier(0.7674,0.1844,0.8382,0.7157);
    transform: translate(0,-39.96px) scaleY(1);
  }
  72% {
    animation-timing-function: cubic-bezier(0.1118,0.2149,0.2172,0.941);
    transform: translate(0,0px) scaleY(1);
  }
  87% {
    animation-timing-function: cubic-bezier(0.7494,0.2259,0.8209,0.6963);
    transform: translate(0,19.900000000000002px) scaleY(0.602);
  }
  100% {
    transform: translate(0,0px) scaleY(1);
  }
}</style></svg>